<?xml version="1.0" encoding="utf-8"?>
<!-- Generator: Adobe Illustrator 19.2.1, SVG Export Plug-In . SVG Version: 6.00 Build 0)  -->
<svg version="1.1" id="Layer_1" xmlns="http://www.w3.org/2000/svg" xmlns:xlink="http://www.w3.org/1999/xlink" x="0px" y="0px"
	 viewBox="0 0 72 72" style="enable-background:new 0 0 72 72;" xml:space="preserve">
<style type="text/css">
	.st0{fill:#373C45;}
	.st1{fill:#E1B824;}
</style>
<g>
	<g>
		<path class="st0" d="M20.9,8.3L20.9,8.3c2-2.8,5.2-6,10-6c2.8,0,7,1,8.6,6.4h0.1c2.8-4,6.3-6.4,10.7-6.4c3.5,0,9.3,1.5,9.3,11.6
			V36l3.5,0.3v1.4H47.6v-1.4l3.5-0.3V12.8c0-7.1-3.2-7.3-4.4-7.3c-2.6,0-6.7,3-6.7,9.5v21.2l3.5,0.3v1.4H28.2v-1.4l3.5-0.3V12.8
			c0-7.1-3.1-7.3-4.3-7.3c-2.6,0-6.4,4.1-6.4,10.2v20.5l3.5,0.3v1.4H9v-1.4l3.5-0.3v-30H8.3V4.7L15.5,4l4.8-1.3l0.5,1L20.9,8.3
			L20.9,8.3z"/>
	</g>
	<rect x="9.2" y="46.4" class="st1" width="54.5" height="2.5"/>
	<g>
		<path class="st1" d="M38.1,64.3l3,3.5l-2.5,1.8l-2.5-4.1l-2.5,4.1l-2.5-1.8l3-3.5l-4.2-1l0.9-3L35,62l-0.4-4.5h3.1l-0.4,4.6
			l4.1-1.7l0.9,3L38.1,64.3z"/>
	</g>
</g>
</svg>
